<?xml version="1.0" encoding="UTF-8" standalone="no"?>
<!-- Created with Inkscape (http://www.inkscape.org/) -->

<svg
   xmlns:dc="http://purl.org/dc/elements/1.1/"
   xmlns:cc="http://creativecommons.org/ns#"
   xmlns:rdf="http://www.w3.org/1999/02/22-rdf-syntax-ns#"
   xmlns:svg="http://www.w3.org/2000/svg"
   xmlns="http://www.w3.org/2000/svg"
   xmlns:sodipodi="http://sodipodi.sourceforge.net/DTD/sodipodi-0.dtd"
   xmlns:inkscape="http://www.inkscape.org/namespaces/inkscape"
   inkscape:version="0.92.3 (2405546, 2018-03-11)"
   id="SVGRoot"
   version="1.1"
   viewBox="0 0 15 15"
   height="15"
   width="15"
   sodipodi:docname="icon.svg">
  <sodipodi:namedview
     gridtolerance="10"
     objecttolerance="20"
     inkscape:grid-bbox="true"
     inkscape:window-maximized="1"
     inkscape:window-y="0"
     inkscape:window-x="0"
     inkscape:window-height="1008"
     inkscape:window-width="1920"
     showgrid="true"
     inkscape:current-layer="layer1"
     inkscape:document-units="px"
     inkscape:cy="-4.2601046"
     inkscape:cx="10.332923"
     inkscape:zoom="22.627417"
     inkscape:pageshadow="2"
     inkscape:pageopacity="0.0"
     borderopacity="1.0"
     bordercolor="#666666"
     pagecolor="#ffffff"
     id="base">
    <inkscape:grid
       type="xygrid"
       id="grid6803" />
  </sodipodi:namedview>
  <defs
     id="defs815" />
  <metadata
     id="metadata818">
    <rdf:RDF>
      <cc:Work
         rdf:about="">
        <dc:format>image/svg+xml</dc:format>
        <dc:type
           rdf:resource="http://purl.org/dc/dcmitype/StillImage" />
        <dc:title />
      </cc:Work>
    </rdf:RDF>
  </metadata>
  <g
     transform="translate(0,-1)"
     inkscape:label="Ebene 1"
     inkscape:groupmode="layer"
     id="layer1">
    <g
       style="fill:#303030;fill-opacity:0.98255032;fill-rule:evenodd;stroke:none;stroke-width:0;stroke-miterlimit:4;stroke-dasharray:none;stroke-dashoffset:0;stroke-opacity:1;opacity:0.15"
       id="g6705"
       transform="translate(0,1.000454)">
      <path
         inkscape:connector-curvature="0"
         d="M 11.912109,2.828125 2.7421875,4.3808594 13.702343,15.341015 22.872264,13.78828 Z"
         id="path6689"
         style="fill:#303030;fill-opacity:0.98255032;fill-rule:evenodd" />
      <path
         inkscape:connector-curvature="0"
         d="m 2.7421875,4.3808594 0.1074219,0.625 10.9601556,10.9601556 -0.107422,-0.625 z"
         id="path6691"
         style="fill:#303030;fill-opacity:0.98255032;fill-rule:evenodd" />
      <path
         inkscape:connector-curvature="0"
         d="M 2.8496094,5.0058594 V 9.1503906 L 13.809765,20.110546 v -4.144531 z"
         id="path6693"
         style="fill:#303030;fill-opacity:0.98255032;fill-rule:evenodd" />
      <path
         inkscape:connector-curvature="0"
         d="M 2.8496094,9.1503906 H 12.150391 L 23.110546,20.110546 h -9.300781 z"
         id="path6695"
         style="fill:#303030;fill-opacity:0.98255032;fill-rule:evenodd" />
      <path
         inkscape:connector-curvature="0"
         d="M 12.150391,9.1503906 V 4.8496094 L 23.110546,15.809765 v 4.300781 z"
         id="path6697"
         style="fill:#303030;fill-opacity:0.98255032;fill-rule:evenodd" />
      <path
         inkscape:connector-curvature="0"
         d="M 12.150391,4.8496094 H 4.7480469 L 15.708202,15.809765 h 7.402344 z"
         id="path6699"
         style="fill:#303030;fill-opacity:0.98255032;fill-rule:evenodd" />
      <path
         inkscape:connector-curvature="0"
         d="M 4.7480469,4.8496094 12.044922,3.6152344 23.005077,14.57539 15.708202,15.809765 Z"
         id="path6701"
         style="fill:#303030;fill-opacity:0.98255032;fill-rule:evenodd" />
      <path
         inkscape:connector-curvature="0"
         d="M 12.044922,3.6152344 11.912109,2.828125 22.872264,13.78828 l 0.132813,0.78711 z"
         id="path6703"
         style="fill:#303030;fill-opacity:0.98255032;fill-rule:evenodd" />
    </g>
    <rect
       y="6"
       x="3.000001"
       height="3.9999998"
       width="8.999999"
       id="rect1374"
       style="fill:#303030;fill-opacity:1;stroke:#5a595b;stroke-width:0.3;stroke-miterlimit:4;stroke-dasharray:none;stroke-dashoffset:0;stroke-opacity:1" />
    <rect
       style="opacity:1;fill:#5a595b;fill-opacity:1;stroke:none;stroke-width:0;stroke-miterlimit:4;stroke-dasharray:none;stroke-dashoffset:0;stroke-opacity:1"
       id="rect6776"
       width="9.2999992"
       height="0.79999906"
       x="1.8037206"
       y="5.7680292"
       inkscape:transform-center-x="-4.3898624"
       inkscape:transform-center-y="-0.99831325"
       transform="rotate(-9.6285688)" />
    <rect
       y="6"
       x="6.000001"
       height="4"
       width="3"
       id="rect1382"
       style="fill:#5a595b;fill-opacity:1;stroke:none;stroke-width:0;stroke-miterlimit:4;stroke-dasharray:none;stroke-dashoffset:0;stroke-opacity:0.96717173;" />
    <g
       aria-label="DSB"
       style="font-style:normal;font-weight:normal;font-size:10.66666698px;line-height:125%;font-family:sans-serif;letter-spacing:0px;word-spacing:0px;fill:#000000;fill-opacity:1;stroke:none;stroke-width:1.00157475;stroke-linecap:butt;stroke-linejoin:miter;stroke-miterlimit:4;stroke-dasharray:none;stroke-opacity:1"
       id="text1380">
      <path
         d="m 3.4135001,9.5079985 v -2.916 h 1.124 q 0.556,0 0.872,0.388 0.316,0.388 0.316,1.068 0,0.68 -0.32,1.072 -0.316,0.388 -0.868,0.388 z m 0.372,-0.328 h 0.688 q 0.432,0 0.656,-0.288 0.224,-0.288 0.224,-0.84 0,-0.556 -0.224,-0.844 -0.224,-0.288 -0.656,-0.288 h -0.688 z"
         style="fill:#c1c1c1;fill-opacity:1"
         id="path6744" />
      <path
         d="m 7.5005626,9.2719985 q 0.224,0 0.38,-0.052 0.156,-0.052 0.228,-0.136 0.076,-0.084 0.104,-0.164 0.032,-0.084 0.032,-0.176 0,-0.332 -0.536,-0.472 l -0.724,-0.192 q -0.572,-0.148 -0.572,-0.68 0,-0.396 0.276,-0.624 0.28,-0.232 0.76,-0.232 0.504,0 0.784,0.24 0.28,0.236 0.284,0.664 h -0.352 q -0.004,-0.284 -0.192,-0.436 -0.188,-0.156 -0.536,-0.156 -0.296,0 -0.476,0.136 -0.176,0.136 -0.176,0.356 0,0.168 0.108,0.264 0.108,0.096 0.372,0.168 l 0.732,0.196 q 0.296,0.08 0.456,0.272 0.164,0.192 0.164,0.46 0,0.116 -0.032,0.232 -0.028,0.112 -0.108,0.236 -0.08,0.12 -0.204,0.212 -0.124,0.092 -0.332,0.152 -0.204,0.06 -0.464,0.06 -0.164,0 -0.316,-0.028 -0.148,-0.024 -0.304,-0.092 -0.156,-0.072 -0.268,-0.18 -0.112,-0.112 -0.188,-0.296 -0.072,-0.184 -0.076,-0.424 h 0.352 v 0.02 q 0,0.124 0.036,0.232 0.04,0.108 0.124,0.212 0.088,0.104 0.256,0.168 0.172,0.06 0.408,0.06 z"
         style="font-style:normal;font-variant:normal;font-weight:normal;font-stretch:normal;font-family:FreeSans;-inkscape-font-specification:FreeSans;letter-spacing:0.25px;word-spacing:0px;fill:#bdbdbd;fill-opacity:1;stroke:none;stroke-width:1.00157475;stroke-miterlimit:4;stroke-dasharray:none;stroke-opacity:1"
         id="path6746" />
      <path
         d="m 11.550438,8.6759985 q 0,0.376 -0.236,0.604 -0.236,0.228 -0.624,0.228 H 9.3744376 v -2.916 h 1.1840004 q 0.244,0 0.424,0.072 0.18,0.072 0.268,0.192 0.092,0.116 0.132,0.236 0.04,0.116 0.04,0.24 0,0.448 -0.404,0.636 0.28,0.108 0.404,0.276 0.128,0.168 0.128,0.432 z m -1.084,-0.828 q 0.584,0 0.584,-0.464 0,-0.464 -0.584,-0.464 H 9.7464376 v 0.928 z m 0.188,1.332 q 0.196,0 0.32,-0.084 0.124,-0.088 0.164,-0.192 0.04,-0.104 0.04,-0.224 0,-0.228 -0.136,-0.364 -0.136,-0.14 -0.388,-0.14 H 9.7464376 v 1.004 z"
         style="fill:#c1c1c1;fill-opacity:1"
         id="path6748" />
    </g>
    <g
       aria-label="mobile"
       transform="translate(4.7950678,1.0872621)"
       style="font-style:normal;font-weight:normal;font-size:2.66666698px;line-height:125%;font-family:sans-serif;letter-spacing:0px;word-spacing:0px;fill:#ffffff;fill-opacity:1;stroke:none;stroke-width:1px;stroke-linecap:butt;stroke-linejoin:miter;stroke-opacity:1"
       id="text1549">
      <path
         d="m 0.15429687,10.559571 q 0.0126953,-0.106446 0.0126953,-0.195313 -9.7657e-4,-0.03516 -0.001953,-0.07031 0,-0.03516 -0.001953,-0.07031 -0.001953,-0.03516 -0.00293,-0.06934 -0.007813,-0.140625 -0.007813,-0.2128905 L 0.10058594,9.8896487 0.01464844,9.9375003 -0.0078125,9.9140628 0.21289063,9.7275393 0.3125,9.8320315 v 0.089844 L 0.56640625,9.72168 q 0.13476562,0.081055 0.24023438,0.1142578 v 0.078125 Q 0.96191406,9.8066409 1.0644531,9.7236331 q 0.171875,0.092773 0.2421875,0.1142578 -0.00488,0.054687 -0.00977,0.1552734 -0.00391,0.1005857 -0.00391,0.1865237 0,0.120117 0.00586,0.240234 0.044922,0.06738 0.071289,0.09375 0.064453,-0.02539 0.1005859,-0.0498 l 0.011719,0.03418 -0.2441407,0.211914 q -0.016602,-0.03125 -0.109375,-0.158203 0.03125,-0.147461 0.03125,-0.311523 0,-0.120118 -0.021484,-0.2519535 -0.00488,-0.035156 -0.069336,-0.057617 -0.064453,-0.023437 -0.13085934,-0.037109 -0.0683594,0.033203 -0.13183593,0.076172 V 10.40235 q 0,0.0332 0.007813,0.04395 L 0.90625,10.578125 0.734375,10.723633 q -0.0292969,-0.06543 -0.09375,-0.143555 0.0263672,-0.110351 0.0263672,-0.272461 0,-0.136718 -0.0205078,-0.3300777 Q 0.6152344,9.9501953 0.5722656,9.9335943 0.5302734,9.9169923 0.45605467,9.8955083 L 0.3125,9.9775393 v 0.3906247 q 0,0.08008 0.009766,0.0918 l 0.0878906,0.116211 -0.16601562,0.139649 z"
         style="font-style:normal;font-variant:normal;font-weight:normal;font-stretch:normal;font-size:2px;font-family:eufm10;-inkscape-font-specification:eufm10;text-align:center;text-anchor:middle;fill:#ffffff;fill-opacity:1"
         id="path6751"
         inkscape:connector-curvature="0" />
      <path
         d="m 1.6435547,10.536133 v -0.06055 q 0,-0.251953 0.03418,-0.5312498 0.1679687,-0.092773 0.3515625,-0.234375 0.1503906,0.1015625 0.2949219,0.1337891 0.00977,0.1269531 0.00977,0.2265627 0,0.21875 -0.041992,0.417969 -0.072266,0.04492 -0.1142578,0.07031 -0.041016,0.02441 -0.1044922,0.05859 -0.0625,0.03418 -0.1113281,0.05664 -0.048828,0.02344 -0.1220704,0.05371 -0.085937,-0.07617 -0.1220703,-0.111328 -0.036133,-0.03516 -0.074219,-0.08008 z m 0.171875,-0.110351 q 0.049805,0.05664 0.1152344,0.108398 0.066406,0.05176 0.1152343,0.05176 0.011719,0 0.043945,-0.04004 0.036133,-0.03906 0.050781,-0.08887 0.015625,-0.0498 0.025391,-0.123047 0.015625,-0.09375 0.015625,-0.213868 0,-0.0791 -0.00586,-0.1601558 -0.040039,-0.00293 -0.088867,-0.014648 -0.048828,-0.011719 -0.09082,-0.024414 -0.041016,-0.013672 -0.1201171,-0.042969 -0.047852,0.05957 -0.06543,0.1406248 -0.016602,0.08106 -0.016602,0.179687 0,0.107422 0.021484,0.22754 z"
         style="font-style:normal;font-variant:normal;font-weight:normal;font-stretch:normal;font-size:2px;font-family:eufm10;-inkscape-font-specification:eufm10;text-align:center;text-anchor:middle;fill:#ffffff;fill-opacity:1"
         id="path6753"
         inkscape:connector-curvature="0" />
      <path
         d="m 2.6601563,10.530274 q 0.016601,-0.08789 0.021484,-0.200196 0.00488,-0.112304 0.00488,-0.272461 0,-0.1591792 -0.00195,-0.280273 -9.765e-4,-0.1220703 -0.00488,-0.2392578 -0.00391,-0.1171875 -0.00781,-0.2001953 l 0.03418,-0.00781 0.03418,0.1513672 0.015625,-0.00781 0.2402344,-0.171875 0.03418,0.024414 -0.05957,0.051758 q -0.083984,0.073242 -0.1083984,0.180664 -0.024414,0.1074219 -0.024414,0.256836 0,0.055664 0.00488,0.1259765 l 0.00977,0.00488 Q 3.0253906,9.799805 3.1328125,9.7333987 q 0.1113281,0.066406 0.2333984,0.1201172 0.00391,0.125 0.00391,0.1865231 0,0.244141 -0.038086,0.4375 -0.2558594,0.166016 -0.4541016,0.25586 -0.025391,-0.02246 -0.068359,-0.06055 -0.042969,-0.03809 -0.074219,-0.06641 -0.030273,-0.0293 -0.075195,-0.07617 z m 0.1826171,-0.104492 q 0.021484,0.02148 0.063477,0.06348 0.042969,0.04199 0.083008,0.07031 0.040039,0.02832 0.067383,0.02832 0.050781,0 0.085937,-0.05273 0.036133,-0.05274 0.049805,-0.113282 0.019531,-0.08301 0.019531,-0.204101 0,-0.141602 -0.00977,-0.2421878 Q 3.1601563,9.9511722 3.0341797,9.902344 2.9130859,9.9550784 2.8398438,10.00586 Z"
         style="font-style:normal;font-variant:normal;font-weight:normal;font-stretch:normal;font-size:2px;font-family:eufm10;-inkscape-font-specification:eufm10;text-align:center;text-anchor:middle;fill:#ffffff;fill-opacity:1"
         id="path6755"
         inkscape:connector-curvature="0" />
      <path
         d="m 3.6953125,10.561524 q 0.016602,-0.117188 0.016602,-0.273438 0,-0.163086 -0.020508,-0.3505857 -0.017578,-0.023437 -0.040039,-0.045898 -0.015625,0.00391 -0.083984,0.041992 l -0.025391,-0.025391 q 0.1005859,-0.083984 0.2099609,-0.1845703 0.063477,0.066406 0.1201172,0.1083984 -0.026367,0.1972656 -0.026367,0.3740236 0,0.07715 0.00391,0.125977 0.00391,0.04883 0.022461,0.09961 0.018555,0.05078 0.057617,0.08984 0.00391,0 0.00781,-0.0039 0.00488,-0.0049 0.00977,-0.0059 l 0.088867,-0.04394 0.013672,0.03809 q -0.1240234,0.115234 -0.2480469,0.208007 z m 0.078125,-1.0000003 q -0.055664,-0.050781 -0.1162109,-0.1240234 0.019531,-0.019531 0.057617,-0.052734 0.039063,-0.033203 0.0625,-0.060547 0.077148,0.09082 0.1103515,0.1152344 z"
         style="font-style:normal;font-variant:normal;font-weight:normal;font-stretch:normal;font-size:2px;font-family:eufm10;-inkscape-font-specification:eufm10;text-align:center;text-anchor:middle;fill:#ffffff;fill-opacity:1"
         id="path6757"
         inkscape:connector-curvature="0" />
      <path
         d="m 4.3681641,10.711914 -0.099609,-0.152343 q 0.017578,-0.323243 0.017578,-0.6455082 0,-0.2675781 -0.015625,-0.5722656 l 0.027344,-0.013672 0.048828,0.1513672 Q 4.5234375,9.3496097 4.6005859,9.3017581 l 0.025391,0.022461 q -0.085937,0.072266 -0.131836,0.1376953 -0.044922,0.064453 -0.0625,0.1425782 -0.017578,0.077148 -0.017578,0.1894531 0,0.075195 0.00195,0.1396484 0.00195,0.064453 0.00586,0.1533199 0.00391,0.08789 0.00586,0.165039 0.00293,0.07715 0.00293,0.154297 v 0.03125 q 0.00684,0.01172 0.021484,0.02734 0.014649,0.01563 0.03125,0.03027 0.016602,0.01367 0.03125,0.02637 l 0.091797,-0.04981 0.011719,0.03223 z"
         style="font-style:normal;font-variant:normal;font-weight:normal;font-stretch:normal;font-size:2px;font-family:eufm10;-inkscape-font-specification:eufm10;text-align:center;text-anchor:middle;fill:#ffffff;fill-opacity:1"
         id="path6759"
         inkscape:connector-curvature="0" />
      <path
         d="m 4.7832031,10.501953 q -0.012695,-0.104492 -0.012695,-0.217773 0,-0.160156 0.02832,-0.3447266 L 5.1230469,9.7382815 q 0.050781,0.064453 0.1083984,0.1171875 0.058594,0.051758 0.1269531,0.100586 -0.3076172,0.291016 -0.4257812,0.383789 0,0.02051 0.00391,0.05566 0.1054688,0.109375 0.2060547,0.154297 0.018555,0 0.02832,-0.0039 l 0.1660157,-0.08008 0.00977,0.03223 Q 5.1699219,10.635742 5.0087891,10.733399 4.8515625,10.588867 4.7832031,10.501953 Z m 0.1455078,-0.25 Q 5.1054687,10.139649 5.1953125,10.045899 5.0673828,9.9658206 4.9824219,9.87793 q -0.033203,0 -0.043945,0.128906 -0.00977,0.128906 -0.00977,0.245117 z"
         style="font-style:normal;font-variant:normal;font-weight:normal;font-stretch:normal;font-size:2px;font-family:eufm10;-inkscape-font-specification:eufm10;text-align:center;text-anchor:middle;fill:#ffffff;fill-opacity:1"
         id="path6761"
         inkscape:connector-curvature="0" />
    </g>
  </g>
</svg>
